HIERARCHY
ROOT Hips
{
	OFFSET 0.00000 0.00000 0.00000
	CHANNELS 6 Xposition Yposition Zposition Zrotation Yrotation Xrotation 
	JOINT LHipJoint
	{
		OFFSET 0 0 0
		CHANNELS 3 Zrotation Yrotation Xrotation
		JOINT LeftHip
		{
			OFFSET 1.58895 -1.83665 0.71753
			CHANNELS 3 Zrotation Yrotation Xrotation
			JOINT LeftKnee
			{
				OFFSET 2.50528 -6.88321 0.00000
				CHANNELS 3 Zrotation Yrotation Xrotation
				JOINT LeftAnkle
				{
					OFFSET 2.63244 -7.23257 0.00000
					CHANNELS 3 Zrotation Yrotation Xrotation
					JOINT LeftToe
					{
						OFFSET 0.23691 -0.65090 1.72750
						CHANNELS 3 Zrotation Yrotation Xrotation
						End Site
						{
							OFFSET 0.00000 -0.00000 0.92561
						}
					}
				}
			}
		}
	}
	JOINT RHipJoint
	{
		OFFSET 0 0 0
		CHANNELS 3 Zrotation Yrotation Xrotation
		JOINT RightHip
		{
			OFFSET -1.51435 -1.83665 0.71753
			CHANNELS 3 Zrotation Yrotation Xrotation
			JOINT RightKnee
			{
				OFFSET -2.54551 -6.99375 0.00000
				CHANNELS 3 Zrotation Yrotation Xrotation
				JOINT RightAnkle
				{
					OFFSET -2.66027 -7.30903 0.00000
					CHANNELS 3 Zrotation Yrotation Xrotation
					JOINT RightToe
					{
						OFFSET -0.22981 -0.63138 2.03959
						CHANNELS 3 Zrotation Yrotation Xrotation
						End Site
						{
							OFFSET -0.00000 -0.00000 1.07060
						}
					}
				}
			}
		}
	}
	JOINT lowerback
	{
		OFFSET 0 0 0
		CHANNELS 3 Zrotation Yrotation Xrotation
		JOINT Chest
		{
			OFFSET -0.02651 1.86275 -0.11152
			CHANNELS 3 Zrotation Yrotation Xrotation
			JOINT Chest2
			{
				OFFSET 0.01019 1.86224 0.04087
				CHANNELS 3 Zrotation Yrotation Xrotation
				JOINT lowerneck
				{
					OFFSET 0 0 0
					CHANNELS 3 Zrotation Yrotation Xrotation
					JOINT Neck
					{
						OFFSET -0.01926 1.80512 0.08867
						CHANNELS 3 Zrotation Yrotation Xrotation
						JOINT Head
						{
							OFFSET 0.05516 1.76451 -0.38475
							CHANNELS 3 Zrotation Yrotation Xrotation
							End Site
							{
								OFFSET 0.01592 1.82587 -0.14001
							}
						}
					}
				}
				JOINT LeftCollar
				{
					OFFSET 0 0 0
					CHANNELS 3 Zrotation Yrotation Xrotation
					JOINT LeftShoulder
					{
						OFFSET 3.47116 1.51376 0.14491
CHANNELS 3 Zrotation Xrotation Yrotation
						JOINT LeftElbow
						{
OFFSET 0 -4.780950 0.000000
CHANNELS 3 Zrotation Xrotation Yrotation
							JOINT LeftWrist
							{
OFFSET 0 -3.586150 -0.000000
CHANNELS 3 Zrotation Xrotation Yrotation
								JOINT lhand
								{
									OFFSET 0 0 0
CHANNELS 3 Zrotation Xrotation Yrotation
									JOINT LFingers
									{
OFFSET 0 -0.659810 0.000000
CHANNELS 3 Zrotation Xrotation Yrotation
										End Site
										{
OFFSET 0 -0.531960 0.000000
										}
									}
								}
								JOINT LThumb
								{
OFFSET 0 0.000000 0.000000
CHANNELS 3 Zrotation Xrotation Yrotation
									End Site
									{
OFFSET 0 -0.540080 0.540080
									}
								}
							}
						}
					}
				}
				JOINT RightCollar
				{
					OFFSET 0 0 0
					CHANNELS 3 Zrotation Yrotation Xrotation
					JOINT RightShoulder
					{
						OFFSET -3.31725 1.61216 0.35156
CHANNELS 3 Zrotation Xrotation Yrotation
						JOINT RightElbow
						{
OFFSET 0 -4.489130 0.000000
CHANNELS 3 Zrotation Xrotation Yrotation
							JOINT RightWrist
							{
OFFSET 0 -3.705100 0.000000
CHANNELS 3 Zrotation Xrotation Yrotation
								JOINT rhand
								{
									OFFSET 0 0 0
CHANNELS 3 Zrotation Xrotation Yrotation
									JOINT RFingers
									{
OFFSET 0 -0.449140 0.000000
CHANNELS 3 Zrotation Xrotation Yrotation
										End Site
										{
OFFSET 0 -0.362110 0.000000
										}
									}
								}
								JOINT RThumb
								{
OFFSET 0 0.000000 0.000000
CHANNELS 3 Zrotation Xrotation Yrotation
									End Site
									{
OFFSET 0 -0.367630 0.367630
									}
								}
							}
						}
					}
				}
			}
		}
	}
}
MOTION
Frames: 7
Frame Time: 0.008333333333333333
-0.653534 17.639748 5.803788 -1.371243 -2.237615 2.005338 0.000000 0.000000 0.000000 -10.684541 -1.952560 -22.186506 7.216473 15.511486 49.688270 2.083924 -5.678103 -26.106259 8.894752 -16.739491 -55.725322 0.000000 0.000000 0.000000 13.785713 4.236340 -14.314953 -4.976319 -13.357054 40.720186 -2.470193 7.784358 -28.338436 -2.352890 9.565357 -27.580445 0.177416 -0.515171 22.349586 1.298483 -0.521968 4.441688 1.460121 -0.246283 -7.596935 11.029775 5.883565 -19.938403 -7.086743 6.856275 27.456417 -3.441107 3.228477 13.202691 0.000000 0.000000 0.000000 54.398663 28.693334 -84.165933 148.830628 -41.874472 107.817127 -33.945719 -53.020531 8.669027 0.000000 0.000000 0.000000 -7.125000 0.000000 0.000000 -38.503597 18.066049 -33.390364 0.000000 0.000000 0.000000 -45.959110 11.341390 81.681213 -135.275549 -50.632708 -97.974470 49.688580 -80.774318 42.853909 0.000000 0.000000 0.000000 7.125000 0.000000 0.000000 87.399402 53.463991 -39.054005
-0.688989 17.639749 5.825526 -1.407497 -0.702994 1.685040 0.000000 0.000000 0.000000 -10.431901 -2.591589 -21.929871 7.250301 15.539127 49.814818 2.018654 -6.337171 -25.610253 8.863196 -16.718874 -55.615632 0.000000 0.000000 0.000000 14.071974 3.099239 -13.799612 -4.950034 -13.327323 40.606409 -2.598071 7.691734 -29.100799 -2.268707 9.404281 -27.068600 -0.084523 -0.672466 22.075583 1.427530 -0.775257 4.635595 1.813199 -0.362964 -7.229470 11.025597 5.897850 -19.569011 -7.139696 6.974151 28.051317 -3.459328 3.285423 13.388925 0.000000 0.000000 0.000000 52.817574 32.318066 -82.394478 149.594773 -41.237662 108.323956 -34.907529 -52.662422 6.900161 0.000000 0.000000 0.000000 -7.125000 0.000000 0.000000 -39.366939 19.368843 -33.094469 0.000000 0.000000 0.000000 -43.809760 15.317328 78.180736 -136.048953 -50.243644 -98.570607 49.772578 -80.913276 43.936852 0.000000 0.000000 0.000000 7.125000 0.000000 0.000000 88.954964 53.767314 -41.601717
-0.689223 17.632077 5.828680 -1.682795 -0.064314 1.972905 0.000000 0.000000 0.000000 -10.042716 -2.816534 -22.577100 7.329113 15.602858 50.108289 1.947121 -6.769156 -25.100214 8.825898 -16.694330 -55.485921 0.000000 0.000000 0.000000 14.353193 2.661530 -14.092618 -4.894625 -13.264099 40.365415 -2.615161 7.753355 -29.196724 -2.171731 9.214978 -26.470198 0.357111 -0.627729 21.819529 1.356246 -0.618798 4.208148 1.441198 -0.293205 -7.573321 10.731105 5.577156 -17.807210 -6.719237 6.709328 28.723483 -3.330550 3.235881 13.236453 0.000000 0.000000 0.000000 50.423680 37.427274 -79.990575 150.375271 -40.569016 108.835134 -35.341513 -51.573090 5.994198 0.000000 0.000000 0.000000 -7.125000 0.000000 0.000000 -39.793870 20.050701 -32.860647 0.000000 0.000000 0.000000 -40.232017 20.982720 73.243762 -136.685189 -49.915586 -99.058654 50.846639 -80.339814 44.133385 0.000000 0.000000 0.000000 7.125000 0.000000 0.000000 89.912383 53.579701 -42.343261
-0.709816 17.639050 5.848418 -1.941074 1.225060 2.340913 0.000000 0.000000 0.000000 -9.547052 -3.729188 -23.156897 7.422487 15.677548 50.454515 1.849122 -7.159729 -24.413946 8.764431 -16.653715 -55.271827 0.000000 0.000000 0.000000 14.790666 1.903770 -14.278070 -4.823376 -13.182072 40.053806 -2.698932 7.780756 -29.680405 -2.005312 8.876842 -25.410889 0.523514 -0.863568 21.508186 1.594205 -0.864351 3.889290 1.671342 -0.409346 -7.750609 9.568465 5.237161 -15.507597 -6.198843 6.649399 28.719611 -2.975251 3.196994 12.667417 0.000000 0.000000 0.000000 44.342857 43.289441 -73.942388 151.015171 -40.007037 109.248958 -34.734588 -48.813938 6.039006 0.000000 0.000000 0.000000 -7.125000 0.000000 0.000000 -39.568979 20.212842 -32.281749 0.000000 0.000000 0.000000 -35.633040 26.265925 64.999555 -137.684172 -49.381613 -99.819394 52.946910 -81.618061 45.234372 0.000000 0.000000 0.000000 7.125000 0.000000 0.000000 92.769833 53.358609 -45.546528
-0.721117 17.654092 5.853307 -2.151005 2.128723 2.816666 0.000000 0.000000 0.000000 -9.167547 -4.397043 -23.927517 7.488754 15.730024 50.699374 1.750660 -7.293653 -23.728116 8.722913 -16.626050 -55.126806 0.000000 0.000000 0.000000 15.130613 1.447176 -14.653377 -4.741866 -13.086983 39.695015 -2.738750 7.406412 -29.937238 -2.022480 8.912577 -25.522247 0.682391 -0.813216 21.493761 1.708204 -0.744620 3.530025 1.678079 -0.350639 -8.141326 8.876935 4.672065 -11.319247 -6.024074 6.237351 26.466329 -2.889310 3.036067 10.862400 0.000000 0.000000 0.000000 36.052614 47.990382 -65.729249 151.490726 -39.580777 109.553377 -33.572908 -44.315467 7.675416 0.000000 0.000000 0.000000 -7.125000 0.000000 0.000000 -38.651309 19.086372 -32.330919 0.000000 0.000000 0.000000 -28.707149 30.818105 54.223180 -139.208968 -48.530749 -100.969811 53.701663 -82.380894 46.699009 0.000000 0.000000 0.000000 7.125000 0.000000 0.000000 95.259191 53.510849 -49.235877
-0.734307 17.678364 5.854318 -2.321138 2.938165 3.270995 0.000000 0.000000 0.000000 -8.842680 -4.788208 -24.710476 7.535216 15.766499 50.870712 1.661795 -7.330675 -23.099383 8.705755 -16.614555 -55.066752 0.000000 0.000000 0.000000 15.442513 1.099098 -14.914094 -4.639621 -12.966043 39.241589 -2.772081 7.060222 -30.158160 -2.001906 8.869966 -25.389530 0.794198 -0.775903 21.520921 1.873015 -0.648605 3.299962 1.771787 -0.303167 -8.410357 7.400019 4.137746 -5.316178 -5.424881 5.857294 21.789758 -2.543464 2.891101 7.970384 0.000000 0.000000 0.000000 26.946693 49.979207 -56.503085 151.881281 -39.225240 109.801302 -33.605847 -42.051150 6.928571 0.000000 0.000000 0.000000 -7.125000 0.000000 0.000000 -38.885523 19.756427 -31.829312 0.000000 0.000000 0.000000 -21.896424 33.011722 44.234590 -140.659719 -47.674094 -102.050037 54.752476 -82.376980 47.303298 0.000000 0.000000 0.000000 7.125000 0.000000 0.000000 96.741591 53.364587 -51.014446
-0.740239 17.700562 5.844838 -2.490799 3.463741 3.521057 0.000000 0.000000 0.000000 -8.580178 -5.293914 -25.229508 7.610852 15.825381 51.148465 1.581229 -6.992312 -22.527982 8.688605 -16.603141 -55.007013 0.000000 0.000000 0.000000 15.735978 0.971832 -14.905118 -4.528143 -12.831801 38.742068 -2.794361 6.670172 -30.323933 -2.015184 8.897664 -25.475714 1.163225 -0.530884 21.699416 1.766482 -0.250768 3.397446 1.333224 -0.125163 -8.409509 6.839605 3.636964 -0.045465 -5.280510 5.342497 16.779754 -2.531667 2.701393 5.375261 0.000000 0.000000 0.000000 21.568380 48.220721 -49.841607 151.733490 -39.360350 109.707718 -34.384363 -40.954560 6.004494 0.000000 0.000000 0.000000 -7.125000 0.000000 0.000000 -39.455190 20.357641 -31.907643 0.000000 0.000000 0.000000 -16.367173 33.606668 36.403929 -141.838591 -46.941318 -102.916301 56.577315 -82.067593 47.143814 0.000000 0.000000 0.000000 7.125000 0.000000 0.000000 97.686616 52.870018 -51.321013
